# xmcd
# Copyright (C) 1995-1998 Ti Kan
#
# Track frame offsets:
#       150
#       16841
#       34629
#       51723
#       73077
#       88152
#       103792
#       124116
#       139744
#       156720
#       182090
#
# Disc length: 2905 seconds
#
# Revision: 0
# Processed by: cddbd v1.5.1PL2 Copyright (c) Steve Scherf et al.
# Submitted via: CD-Transfer v1.0
#
DISCID=a10b570b
DTITLE=Goodron - 
DYEAR=2006
DGENRE=
TTITLE0=Blue Sky
TTITLE1=Sing For Life
TTITLE2=Dance
TTITLE3=Saturday Night Girl
TTITLE4=Blind Date
TTITLE5=Who Cares
TTITLE6=Destination Over The Clouds
TTITLE7=Thank You
TTITLE8=99
TTITLE9=You
TTITLE10=Song Of Freedom
EXTD=
EXTT0=
EXTT1=
EXTT2=
EXTT3=
EXTT4=
EXTT5=
EXTT6=
EXTT7=
EXTT8=
EXTT9=
EXTT10=
PLAYORDER=
